<mxfile host="app.diagrams.net" agent="Mozilla/5.0 (Windows NT 10.0; Win64; x64) AppleWebKit/537.36 (KHTML, like Gecko) Chrome/140.0.0.0 Safari/537.36 Edg/140.0.0.0" version="28.2.4" pages="2">
  <diagram id="Ht1M8jgEwFfnCIfOTk4-" name="Page-1">
    <mxGraphModel dx="2072" dy="1080" grid="1" gridSize="10" guides="1" tooltips="1" connect="1" arrows="1" fold="1" page="1" pageScale="1" pageWidth="1169" pageHeight="827" math="0" shadow="0">
      <root>
        <mxCell id="0" />
        <mxCell id="1" parent="0" />
        <mxCell id="SpgRSqlM9dsjvKyiODv8-33" style="edgeStyle=orthogonalEdgeStyle;rounded=0;orthogonalLoop=1;jettySize=auto;html=1;dashed=1;flowAnimation=1;" edge="1" parent="1" source="SpgRSqlM9dsjvKyiODv8-3" target="SpgRSqlM9dsjvKyiODv8-29">
          <mxGeometry relative="1" as="geometry">
            <Array as="points">
              <mxPoint x="599" y="314" />
            </Array>
          </mxGeometry>
        </mxCell>
        <mxCell id="SpgRSqlM9dsjvKyiODv8-3" value="" style="sketch=0;points=[[0,0,0],[0.25,0,0],[0.5,0,0],[0.75,0,0],[1,0,0],[0,1,0],[0.25,1,0],[0.5,1,0],[0.75,1,0],[1,1,0],[0,0.25,0],[0,0.5,0],[0,0.75,0],[1,0.25,0],[1,0.5,0],[1,0.75,0]];outlineConnect=0;fontColor=#232F3E;fillColor=#ED7100;strokeColor=#ffffff;dashed=0;verticalLabelPosition=bottom;verticalAlign=top;align=center;html=1;fontSize=12;fontStyle=0;aspect=fixed;shape=mxgraph.aws4.resourceIcon;resIcon=mxgraph.aws4.ec2;" vertex="1" parent="1">
          <mxGeometry x="560" y="407" width="78" height="78" as="geometry" />
        </mxCell>
        <mxCell id="SpgRSqlM9dsjvKyiODv8-7" value="" style="outlineConnect=0;dashed=0;verticalLabelPosition=bottom;verticalAlign=top;align=center;html=1;shape=mxgraph.aws3.volume;fillColor=#E05243;gradientColor=none;" vertex="1" parent="1">
          <mxGeometry x="790" y="408.5" width="62.5" height="75" as="geometry" />
        </mxCell>
        <mxCell id="SpgRSqlM9dsjvKyiODv8-11" style="edgeStyle=orthogonalEdgeStyle;rounded=0;orthogonalLoop=1;jettySize=auto;html=1;exitX=1;exitY=0.5;exitDx=0;exitDy=0;exitPerimeter=0;dashed=1;flowAnimation=1;" edge="1" parent="1" source="SpgRSqlM9dsjvKyiODv8-8">
          <mxGeometry relative="1" as="geometry">
            <mxPoint x="560" y="448" as="targetPoint" />
          </mxGeometry>
        </mxCell>
        <mxCell id="SpgRSqlM9dsjvKyiODv8-8" value="" style="outlineConnect=0;dashed=0;verticalLabelPosition=bottom;verticalAlign=top;align=center;html=1;shape=mxgraph.aws3.volume;fillColor=#E05243;gradientColor=none;" vertex="1" parent="1">
          <mxGeometry x="330" y="410" width="52.5" height="75" as="geometry" />
        </mxCell>
        <mxCell id="SpgRSqlM9dsjvKyiODv8-14" value="EBS 1" style="text;html=1;align=center;verticalAlign=middle;resizable=0;points=[];autosize=1;strokeColor=none;fillColor=none;" vertex="1" parent="1">
          <mxGeometry x="320" y="508" width="60" height="30" as="geometry" />
        </mxCell>
        <mxCell id="SpgRSqlM9dsjvKyiODv8-16" style="edgeStyle=orthogonalEdgeStyle;rounded=0;orthogonalLoop=1;jettySize=auto;html=1;entryX=1;entryY=0.5;entryDx=0;entryDy=0;entryPerimeter=0;dashed=1;flowAnimation=1;" edge="1" parent="1" source="SpgRSqlM9dsjvKyiODv8-7" target="SpgRSqlM9dsjvKyiODv8-3">
          <mxGeometry relative="1" as="geometry" />
        </mxCell>
        <mxCell id="SpgRSqlM9dsjvKyiODv8-17" value="EBS 2&lt;div&gt;&lt;br&gt;&lt;/div&gt;" style="text;html=1;align=center;verticalAlign=middle;resizable=0;points=[];autosize=1;strokeColor=none;fillColor=none;" vertex="1" parent="1">
          <mxGeometry x="792.5" y="508" width="60" height="40" as="geometry" />
        </mxCell>
        <mxCell id="SpgRSqlM9dsjvKyiODv8-19" value="&lt;div&gt;Us -east-1&lt;/div&gt;" style="points=[[0,0],[0.25,0],[0.5,0],[0.75,0],[1,0],[1,0.25],[1,0.5],[1,0.75],[1,1],[0.75,1],[0.5,1],[0.25,1],[0,1],[0,0.75],[0,0.5],[0,0.25]];outlineConnect=0;gradientColor=none;html=1;whiteSpace=wrap;fontSize=12;fontStyle=0;container=1;pointerEvents=0;collapsible=0;recursiveResize=0;shape=mxgraph.aws4.group;grIcon=mxgraph.aws4.group_region;strokeColor=#00A4A6;fillColor=none;verticalAlign=top;align=left;spacingLeft=30;fontColor=#147EBA;dashed=1;" vertex="1" parent="1">
          <mxGeometry x="110" y="260" width="960" height="530" as="geometry" />
        </mxCell>
        <mxCell id="SpgRSqlM9dsjvKyiODv8-20" value="EC2" style="text;html=1;align=center;verticalAlign=middle;resizable=0;points=[];autosize=1;strokeColor=none;fillColor=none;" vertex="1" parent="SpgRSqlM9dsjvKyiODv8-19">
          <mxGeometry x="464" y="240" width="50" height="30" as="geometry" />
        </mxCell>
        <mxCell id="SpgRSqlM9dsjvKyiODv8-30" style="edgeStyle=orthogonalEdgeStyle;rounded=0;orthogonalLoop=1;jettySize=auto;html=1;dashed=1;flowAnimation=1;" edge="1" parent="1">
          <mxGeometry relative="1" as="geometry">
            <mxPoint x="270" y="1010" as="targetPoint" />
            <mxPoint x="480" y="1010" as="sourcePoint" />
          </mxGeometry>
        </mxCell>
        <mxCell id="SpgRSqlM9dsjvKyiODv8-22" value="users" style="sketch=0;outlineConnect=0;gradientColor=none;fontColor=#545B64;strokeColor=none;fillColor=#879196;dashed=0;verticalLabelPosition=bottom;verticalAlign=top;align=center;html=1;fontSize=12;fontStyle=0;aspect=fixed;shape=mxgraph.aws4.illustration_users;pointerEvents=1" vertex="1" parent="1">
          <mxGeometry x="470" y="949.2" width="100" height="100" as="geometry" />
        </mxCell>
        <mxCell id="SpgRSqlM9dsjvKyiODv8-23" value="devices" style="sketch=0;outlineConnect=0;gradientColor=none;fontColor=#545B64;strokeColor=none;fillColor=#879196;dashed=0;verticalLabelPosition=bottom;verticalAlign=top;align=center;html=1;fontSize=12;fontStyle=0;aspect=fixed;shape=mxgraph.aws4.illustration_devices;pointerEvents=1" vertex="1" parent="1">
          <mxGeometry x="80" y="920" width="176.99" height="129.2" as="geometry" />
        </mxCell>
        <mxCell id="SpgRSqlM9dsjvKyiODv8-28" value="AWS Cloud" style="points=[[0,0],[0.25,0],[0.5,0],[0.75,0],[1,0],[1,0.25],[1,0.5],[1,0.75],[1,1],[0.75,1],[0.5,1],[0.25,1],[0,1],[0,0.75],[0,0.5],[0,0.25]];outlineConnect=0;gradientColor=none;html=1;whiteSpace=wrap;fontSize=12;fontStyle=0;container=1;pointerEvents=0;collapsible=0;recursiveResize=0;shape=mxgraph.aws4.group;grIcon=mxgraph.aws4.group_aws_cloud_alt;strokeColor=#232F3E;fillColor=none;verticalAlign=top;align=left;spacingLeft=30;fontColor=#232F3E;dashed=0;" vertex="1" parent="1">
          <mxGeometry x="30" y="190" width="1090" height="690" as="geometry" />
        </mxCell>
        <mxCell id="SpgRSqlM9dsjvKyiODv8-29" value="" style="sketch=0;outlineConnect=0;fontColor=#232F3E;gradientColor=none;fillColor=#C925D1;strokeColor=none;dashed=0;verticalLabelPosition=bottom;verticalAlign=top;align=center;html=1;fontSize=12;fontStyle=0;aspect=fixed;pointerEvents=1;shape=mxgraph.aws4.rds_instance;" vertex="1" parent="SpgRSqlM9dsjvKyiODv8-28">
          <mxGeometry x="630" y="90" width="68" height="68" as="geometry" />
        </mxCell>
        <mxCell id="SpgRSqlM9dsjvKyiODv8-51" style="edgeStyle=orthogonalEdgeStyle;rounded=0;orthogonalLoop=1;jettySize=auto;html=1;dashed=1;flowAnimation=1;" edge="1" parent="SpgRSqlM9dsjvKyiODv8-28" source="SpgRSqlM9dsjvKyiODv8-23">
          <mxGeometry relative="1" as="geometry">
            <mxPoint x="130" y="740" as="sourcePoint" />
            <mxPoint x="290" y="260" as="targetPoint" />
            <Array as="points">
              <mxPoint x="130" y="260" />
            </Array>
          </mxGeometry>
        </mxCell>
        <mxCell id="SpgRSqlM9dsjvKyiODv8-53" value="Send File" style="edgeLabel;html=1;align=center;verticalAlign=middle;resizable=0;points=[];" vertex="1" connectable="0" parent="SpgRSqlM9dsjvKyiODv8-51">
          <mxGeometry x="-0.2884" y="-1" relative="1" as="geometry">
            <mxPoint as="offset" />
          </mxGeometry>
        </mxCell>
      </root>
    </mxGraphModel>
  </diagram>
  <diagram id="g8S8bFti73LN4_pXcpr3" name="PÃ¡gina-2">
    <mxGraphModel dx="1036" dy="540" grid="1" gridSize="10" guides="1" tooltips="1" connect="1" arrows="1" fold="1" page="1" pageScale="1" pageWidth="827" pageHeight="1169" math="0" shadow="0">
      <root>
        <mxCell id="0" />
        <mxCell id="1" parent="0" />
        <mxCell id="QTvKbzcQXR6WutX6CjCE-2" value="" style="outlineConnect=0;dashed=0;verticalLabelPosition=bottom;verticalAlign=top;align=center;html=1;shape=mxgraph.aws3.dynamo_db;fillColor=#2E73B8;gradientColor=none;" vertex="1" parent="1">
          <mxGeometry x="700" y="197" width="72" height="81" as="geometry" />
        </mxCell>
        <mxCell id="QTvKbzcQXR6WutX6CjCE-8" style="edgeStyle=orthogonalEdgeStyle;rounded=0;orthogonalLoop=1;jettySize=auto;html=1;dashed=1;flowAnimation=1;" edge="1" parent="1" source="QTvKbzcQXR6WutX6CjCE-6" target="QTvKbzcQXR6WutX6CjCE-7">
          <mxGeometry relative="1" as="geometry">
            <Array as="points">
              <mxPoint x="260" y="420" />
              <mxPoint x="260" y="420" />
            </Array>
          </mxGeometry>
        </mxCell>
        <mxCell id="QTvKbzcQXR6WutX6CjCE-6" value="" style="points=[[0.35,0,0],[0.98,0.51,0],[1,0.71,0],[0.67,1,0],[0,0.795,0],[0,0.65,0]];verticalLabelPosition=bottom;sketch=0;html=1;verticalAlign=top;aspect=fixed;align=center;pointerEvents=1;shape=mxgraph.cisco19.user;fillColor=#005073;strokeColor=none;" vertex="1" parent="1">
          <mxGeometry x="330" y="386" width="64" height="64" as="geometry" />
        </mxCell>
        <mxCell id="QTvKbzcQXR6WutX6CjCE-7" value="" style="sketch=0;outlineConnect=0;fontColor=#232F3E;gradientColor=none;fillColor=#7AA116;strokeColor=none;dashed=0;verticalLabelPosition=bottom;verticalAlign=top;align=center;html=1;fontSize=12;fontStyle=0;aspect=fixed;pointerEvents=1;shape=mxgraph.aws4.file_gateway;" vertex="1" parent="1">
          <mxGeometry x="110" y="372" width="69" height="78" as="geometry" />
        </mxCell>
        <mxCell id="QTvKbzcQXR6WutX6CjCE-9" value="Sistemas" style="text;html=1;align=center;verticalAlign=middle;resizable=0;points=[];autosize=1;strokeColor=none;fillColor=none;" vertex="1" parent="1">
          <mxGeometry x="321" y="460" width="70" height="30" as="geometry" />
        </mxCell>
        <mxCell id="QTvKbzcQXR6WutX6CjCE-10" style="edgeStyle=orthogonalEdgeStyle;rounded=0;orthogonalLoop=1;jettySize=auto;html=1;dashed=1;flowAnimation=1;" edge="1" parent="1">
          <mxGeometry relative="1" as="geometry">
            <mxPoint x="130" y="372" as="sourcePoint" />
            <mxPoint x="320" y="240" as="targetPoint" />
            <Array as="points">
              <mxPoint x="130" y="372" />
              <mxPoint x="130" y="240" />
              <mxPoint x="291" y="240" />
            </Array>
          </mxGeometry>
        </mxCell>
        <mxCell id="QTvKbzcQXR6WutX6CjCE-12" value="AWS CLI" style="edgeLabel;html=1;align=center;verticalAlign=middle;resizable=0;points=[];" vertex="1" connectable="0" parent="QTvKbzcQXR6WutX6CjCE-10">
          <mxGeometry x="-0.6394" y="-2" relative="1" as="geometry">
            <mxPoint as="offset" />
          </mxGeometry>
        </mxCell>
        <mxCell id="QTvKbzcQXR6WutX6CjCE-14" style="edgeStyle=orthogonalEdgeStyle;rounded=0;orthogonalLoop=1;jettySize=auto;html=1;dashed=1;flowAnimation=1;" edge="1" parent="1">
          <mxGeometry relative="1" as="geometry">
            <mxPoint x="389" y="240" as="sourcePoint" />
            <mxPoint x="520" y="240" as="targetPoint" />
            <Array as="points">
              <mxPoint x="520" y="240" />
            </Array>
          </mxGeometry>
        </mxCell>
        <mxCell id="QTvKbzcQXR6WutX6CjCE-22" value="TRiggers" style="edgeLabel;html=1;align=center;verticalAlign=middle;resizable=0;points=[];" vertex="1" connectable="0" parent="QTvKbzcQXR6WutX6CjCE-14">
          <mxGeometry x="-0.1359" y="3" relative="1" as="geometry">
            <mxPoint x="14" y="1" as="offset" />
          </mxGeometry>
        </mxCell>
        <mxCell id="QTvKbzcQXR6WutX6CjCE-25" style="edgeStyle=orthogonalEdgeStyle;rounded=0;orthogonalLoop=1;jettySize=auto;html=1;dashed=1;flowAnimation=1;" edge="1" parent="1" source="QTvKbzcQXR6WutX6CjCE-18">
          <mxGeometry relative="1" as="geometry">
            <mxPoint x="690" y="244" as="targetPoint" />
          </mxGeometry>
        </mxCell>
        <mxCell id="QTvKbzcQXR6WutX6CjCE-18" value="" style="sketch=0;points=[[0,0,0],[0.25,0,0],[0.5,0,0],[0.75,0,0],[1,0,0],[0,1,0],[0.25,1,0],[0.5,1,0],[0.75,1,0],[1,1,0],[0,0.25,0],[0,0.5,0],[0,0.75,0],[1,0.25,0],[1,0.5,0],[1,0.75,0]];outlineConnect=0;fontColor=#232F3E;fillColor=#ED7100;strokeColor=#ffffff;dashed=0;verticalLabelPosition=bottom;verticalAlign=top;align=center;html=1;fontSize=12;fontStyle=0;aspect=fixed;shape=mxgraph.aws4.resourceIcon;resIcon=mxgraph.aws4.lambda;" vertex="1" parent="1">
          <mxGeometry x="520" y="210" width="68" height="68" as="geometry" />
        </mxCell>
        <mxCell id="QTvKbzcQXR6WutX6CjCE-19" value="" style="sketch=0;points=[[0,0,0],[0.25,0,0],[0.5,0,0],[0.75,0,0],[1,0,0],[0,1,0],[0.25,1,0],[0.5,1,0],[0.75,1,0],[1,1,0],[0,0.25,0],[0,0.5,0],[0,0.75,0],[1,0.25,0],[1,0.5,0],[1,0.75,0]];outlineConnect=0;fontColor=#232F3E;fillColor=#7AA116;strokeColor=#ffffff;dashed=0;verticalLabelPosition=bottom;verticalAlign=top;align=center;html=1;fontSize=12;fontStyle=0;aspect=fixed;shape=mxgraph.aws4.resourceIcon;resIcon=mxgraph.aws4.s3;" vertex="1" parent="1">
          <mxGeometry x="321" y="210" width="68" height="68" as="geometry" />
        </mxCell>
        <mxCell id="QTvKbzcQXR6WutX6CjCE-21" value="Arquivo" style="text;html=1;align=center;verticalAlign=middle;resizable=0;points=[];autosize=1;strokeColor=none;fillColor=none;" vertex="1" parent="1">
          <mxGeometry x="114.5" y="460" width="60" height="30" as="geometry" />
        </mxCell>
        <mxCell id="QTvKbzcQXR6WutX6CjCE-27" value="Amazon S3" style="text;html=1;align=center;verticalAlign=middle;resizable=0;points=[];autosize=1;strokeColor=none;fillColor=none;" vertex="1" parent="1">
          <mxGeometry x="305" y="278" width="90" height="30" as="geometry" />
        </mxCell>
        <mxCell id="QTvKbzcQXR6WutX6CjCE-28" value="AWS Lambda&lt;div&gt;Phyton 3.9&lt;/div&gt;" style="text;html=1;align=center;verticalAlign=middle;resizable=0;points=[];autosize=1;strokeColor=none;fillColor=none;" vertex="1" parent="1">
          <mxGeometry x="504" y="280" width="100" height="40" as="geometry" />
        </mxCell>
        <mxCell id="QTvKbzcQXR6WutX6CjCE-29" value="Amazon&amp;nbsp;&lt;div&gt;Dynamo DB&lt;/div&gt;" style="text;html=1;align=center;verticalAlign=middle;resizable=0;points=[];autosize=1;strokeColor=none;fillColor=none;" vertex="1" parent="1">
          <mxGeometry x="691" y="280" width="90" height="40" as="geometry" />
        </mxCell>
        <mxCell id="QTvKbzcQXR6WutX6CjCE-33" value="AWS Cloud" style="points=[[0,0],[0.25,0],[0.5,0],[0.75,0],[1,0],[1,0.25],[1,0.5],[1,0.75],[1,1],[0.75,1],[0.5,1],[0.25,1],[0,1],[0,0.75],[0,0.5],[0,0.25]];outlineConnect=0;gradientColor=none;html=1;whiteSpace=wrap;fontSize=12;fontStyle=0;container=1;pointerEvents=0;collapsible=0;recursiveResize=0;shape=mxgraph.aws4.group;grIcon=mxgraph.aws4.group_aws_cloud_alt;strokeColor=#232F3E;fillColor=none;verticalAlign=top;align=left;spacingLeft=30;fontColor=#232F3E;dashed=0;" vertex="1" parent="1">
          <mxGeometry x="90" y="120" width="710" height="240" as="geometry" />
        </mxCell>
        <mxCell id="QTvKbzcQXR6WutX6CjCE-34" value="Us-east-1" style="sketch=0;outlineConnect=0;gradientColor=none;html=1;whiteSpace=wrap;fontSize=12;fontStyle=0;shape=mxgraph.aws4.group;grIcon=mxgraph.aws4.group_region;strokeColor=#B6BABF;fillColor=none;verticalAlign=top;align=left;spacingLeft=30;fontColor=#B6BABF;dashed=1;" vertex="1" parent="1">
          <mxGeometry x="110" y="160" width="670" height="190" as="geometry" />
        </mxCell>
      </root>
    </mxGraphModel>
  </diagram>
</mxfile>
